# xmcd
#
# Track frame offsets: 
#        150
#        12468
#        26022
#        40304
#        49560
#        61934
#        75283
#        98655
#        112810
#        122418
#        136103
#        149362
#        169058
#        189420
#        203786
#        217261
#        229706
#        246306
#        265190
#        275799
#
# Disc length: 3835 seconds
#
# Revision: 0
# Processed by: cddbd v1.5.2PL0 Copyright (c) Steve Scherf et al.
# Submitted via: ExactAudioCopyFreeDBPlugin 1.0
#
DISCID=150ef914
DTITLE=Various Artist - Ten Guitars Heartland 2 (1 of 2)
DYEAR=2014
DGENRE=Country
TTITLE0=Johnny Cash - Folsom Prison Blues (Live)
TTITLE1=Kenny Rogers and The First Edition - Ruby, Don't Take Your Love 
TTITLE1=To Town
TTITLE2=John Denver - Take Me Home, Country Roads
TTITLE3=Charley Pride - Kiss An Angel Good Mornin'
TTITLE4=Dolly Parton - 9 To 5
TTITLE5=Glen Campbell - Southern Nights
TTITLE6=Dr. Hook - When You're In Love With A Beautiful Woman
TTITLE7=Eddie Rabbitt - I Love A Rainy Night
TTITLE8=Linda Ronstadt - When Will I Be Loved
TTITLE9=Olivia Newton-John - Let Me Be There
TTITLE10=Lynn Anderson - Rose Garden
TTITLE11=The Mavericks - Dance The Night Away
TTITLE12=Steve Earle - Copperhead Road
TTITLE13=The Soggy Bottom Boys featuring Dan Tyminski - I Am A Man Of 
TTITLE13=Constant Sorrow
TTITLE14=David Allan Coe - Take This Job And Shove It Too
TTITLE15=Jerry Reed - East Bound And Down
TTITLE16=Tony Joe White - Polk Salad Annie
TTITLE17=Jimmy Buffett - Margaritaville
TTITLE18=Buck Owens - Act Naturally
TTITLE19=Tennessee Ernie Ford - Sixteen Tons
EXTD=
EXTT0=
EXTT1=
EXTT2=
EXTT3=
EXTT4=
EXTT5=
EXTT6=
EXTT7=
EXTT8=
EXTT9=
EXTT10=
EXTT11=
EXTT12=
EXTT13=
EXTT14=
EXTT15=
EXTT16=
EXTT17=
EXTT18=
EXTT19=
PLAYORDER=
